name C:\Users\u0101727\Documents\MyRepositories\upper-imu-dc\Results\main_tracking\Case_44\FLX01_angularVelocities_groundFrame.mot
datacolumns 4
datarows 70
range 3.51000000 4.20000000
endheader 
time	radius_imu_x	radius_imu_y	radius_imu_z	
          3.51000000	          0.00776702	         -0.08149148	         -0.06868020	
          3.52000000	          0.00968310	         -0.07822115	         -0.07004818	
          3.53000000	          0.01171510	         -0.07484664	         -0.07129290	
          3.54000000	          0.01382828	         -0.07135023	         -0.07246198	
          3.55000000	          0.01598838	         -0.06771028	         -0.07360513	
          3.56000000	          0.01816382	         -0.06389896	         -0.07477343	
          3.57000000	          0.02032754	         -0.05988058	         -0.07601876	
          3.58000000	          0.02245853	         -0.05561095	         -0.07739353	
          3.59000000	          0.02454256	         -0.05103794	         -0.07895056	
          3.60000000	          0.02657224	         -0.04610325	         -0.08074311	
          3.61000000	          0.02854644	         -0.04074527	         -0.08282495	
          3.62000000	          0.03046903	         -0.03490262	         -0.08525057	
          3.63000000	          0.03234737	         -0.02851768	         -0.08807522	
          3.64000000	          0.03419073	         -0.02153969	         -0.09135487	
          3.65000000	          0.03600884	         -0.01392721	         -0.09514603	
          3.66000000	          0.03781050	         -0.00564946	         -0.09950523	
          3.67000000	          0.03960254	          0.00331315	         -0.10448836	
          3.68000000	          0.04138904	          0.01296897	         -0.11014992	
          3.69000000	          0.04317106	          0.02331550	         -0.11654202	
          3.70000000	          0.04494679	          0.03433994	         -0.12371342	
          3.71000000	          0.04671202	          0.04601989	         -0.13170841	
          3.72000000	          0.04846069	          0.05832451	         -0.14056580	
          3.73000000	          0.05018527	          0.07121554	         -0.15031809	
          3.74000000	          0.05187716	          0.08464867	         -0.16099085	
          3.75000000	          0.05352692	          0.09857550	         -0.17260212	
          3.76000000	          0.05512470	          0.11294601	         -0.18516202	
          3.77000000	          0.05666076	          0.12771144	         -0.19867237	
          3.78000000	          0.05812607	          0.14282689	         -0.21312673	
          3.79000000	          0.05951299	          0.15825282	         -0.22851066	
          3.80000000	          0.06081587	          0.17395550	         -0.24480243	
          3.81000000	          0.06203155	          0.18990674	         -0.26197380	
          3.82000000	          0.06315967	          0.20608346	         -0.27999099	
          3.83000000	          0.06420301	          0.22246761	         -0.29881541	
          3.84000000	          0.06516791	          0.23904619	         -0.31840446	
          3.85000000	          0.06606497	          0.25581152	         -0.33871200	
          3.86000000	          0.06690970	          0.27276051	         -0.35968906	
          3.87000000	          0.06772288	          0.28989326	         -0.38128451	
          3.88000000	          0.06853089	          0.30721128	         -0.40344576	
          3.89000000	          0.06936572	          0.32471538	         -0.42611944	
          3.90000000	          0.07026488	          0.34240377	         -0.44925186	
          3.91000000	          0.07127125	          0.36027078	         -0.47278950	
          3.92000000	          0.07243268	          0.37830625	         -0.49667942	
          3.93000000	          0.07380170	          0.39649602	         -0.52086956	
          3.94000000	          0.07543515	          0.41482270	         -0.54530882	
          3.95000000	          0.07739385	          0.43326615	         -0.56994686	
          3.96000000	          0.07974193	          0.45180309	         -0.59473393	
          3.97000000	          0.08254572	          0.47040588	         -0.61962064	
          3.98000000	          0.08587208	          0.48904061	         -0.64455778	
          3.99000000	          0.08978634	          0.50766500	         -0.66949620	
          4.00000000	          0.09435016	          0.52622674	         -0.69438637	
          4.01000000	          0.09961946	          0.54466301	         -0.71917790	
          4.02000000	          0.10564294	          0.56290153	         -0.74381888	
          4.03000000	          0.11246116	          0.58086282	         -0.76825530	
          4.04000000	          0.12010638	          0.59846361	         -0.79243056	
          4.05000000	          0.12860334	          0.61562085	         -0.81628516	
          4.06000000	          0.13797058	          0.63225582	         -0.83975665	
          4.07000000	          0.14822210	          0.64829786	         -0.86277992	
          4.08000000	          0.15936885	          0.66368683	         -0.88528800	
          4.09000000	          0.17141947	          0.67837376	         -0.90721355	
          4.10000000	          0.18438022	          0.69231970	         -0.92849106	
          4.11000000	          0.19825409	          0.70549267	         -0.94905957	
          4.12000000	          0.21303959	          0.71786344	         -0.96886589	
          4.13000000	          0.22872925	          0.72940093	         -0.98786767	
          4.14000000	          0.24530834	          0.74006835	         -1.00603599	
          4.15000000	          0.26275382	          0.74982063	         -1.02335712	
          4.16000000	          0.28103345	          0.75860325	         -1.03983338	
          4.17000000	          0.30010489	          0.76635180	         -1.05548304	
          4.18000000	          0.31991468	          0.77299188	         -1.07033955	
          4.19000000	          0.34039711	          0.77843979	         -1.08445014	
          4.20000000	          0.36147357	          0.78260449	         -1.09787385	
